<?xml version="1.0" encoding="UTF-8" standalone="no"?>
<!-- Created with Inkscape (http://www.inkscape.org/) -->

<svg
   xmlns:dc="http://purl.org/dc/elements/1.1/"
   xmlns:cc="http://creativecommons.org/ns#"
   xmlns:rdf="http://www.w3.org/1999/02/22-rdf-syntax-ns#"
   xmlns:svg="http://www.w3.org/2000/svg"
   xmlns="http://www.w3.org/2000/svg"
   xmlns:sodipodi="http://sodipodi.sourceforge.net/DTD/sodipodi-0.dtd"
   xmlns:inkscape="http://www.inkscape.org/namespaces/inkscape"
   width="15.307328mm"
   height="15.136054mm"
   viewBox="0 0 15.307328 15.136054"
   version="1.1"
   id="svg398"
   inkscape:version="0.92.3 (2405546, 2018-03-11)"
   sodipodi:docname="professor_bot.svg">
  <defs
     id="defs392" />
  <sodipodi:namedview
     id="base"
     pagecolor="#ffffff"
     bordercolor="#666666"
     borderopacity="1.0"
     inkscape:pageopacity="0.0"
     inkscape:pageshadow="2"
     inkscape:zoom="0.35"
     inkscape:cx="-993.92991"
     inkscape:cy="317.17499"
     inkscape:document-units="mm"
     inkscape:current-layer="layer1"
     showgrid="false"
     fit-margin-top="0"
     fit-margin-left="0"
     fit-margin-right="0"
     fit-margin-bottom="0"
     inkscape:window-width="2558"
     inkscape:window-height="1438"
     inkscape:window-x="0"
     inkscape:window-y="0"
     inkscape:window-maximized="0" />
  <metadata
     id="metadata395">
    <rdf:RDF>
      <cc:Work
         rdf:about="">
        <dc:format>image/svg+xml</dc:format>
        <dc:type
           rdf:resource="http://purl.org/dc/dcmitype/StillImage" />
        <dc:title></dc:title>
      </cc:Work>
    </rdf:RDF>
  </metadata>
  <g
     inkscape:label="Layer 1"
     inkscape:groupmode="layer"
     id="layer1"
     transform="translate(-368.81062,-217.6165)">
    <g
       style="stroke-width:10.80204296;stroke-miterlimit:4;stroke-dasharray:none"
       id="g1439"
       transform="matrix(0.04898765,0,0,0.04898765,298.52449,185.08461)">
      <path
         style="fill:#d3d3d3;stroke-width:10.80204296;stroke-miterlimit:4;stroke-dasharray:none"
         d="m 1474.7821,945.43248 v -27.62772 l -10.0031,-0.008 c -11.8281,-0.008 -20.6303,-4.63954 -26.209,-13.78932 -3.3566,-5.50524 -3.787,-9.63629 -3.7933,-36.40765 -0.01,-33.84224 1.7984,-40.83644 12.1771,-47.14806 3.2012,-1.94678 10.7722,-4.09983 16.8244,-4.78456 l 11.0039,-1.24446 v -26.42894 -26.42893 h 53.3501 53.3501 v -19.80243 c 0,-20.84755 -0.5467,-22.1155 -9.5364,-22.1155 -4.6711,0 -14.6369,-8.56288 -18.3719,-15.78558 -3.7745,-7.29901 -2.5154,-20.81292 2.5882,-27.77902 6.521,-8.90077 14.8239,-11.68492 34.8469,-11.68492 20.023,0 28.3259,2.78415 34.8469,11.68492 5.1036,6.9661 6.3628,20.48001 2.5883,27.77902 -3.735,7.2227 -13.7008,15.78558 -18.3719,15.78558 -8.9897,0 -9.5365,1.26795 -9.5365,22.1155 v 19.80243 h 53.3501 53.3501 v 26.42893 26.42894 l 11.004,1.24496 c 6.0522,0.68472 13.6232,2.83778 16.8244,4.78456 10.3786,6.31162 12.185,13.30581 12.177,47.14806 -0.01,26.77136 -0.4367,30.90241 -3.7933,36.40764 -5.5787,9.14979 -14.3809,13.7809 -26.209,13.78932 l -10.0031,0.007 v 27.62772 27.62773 h -116.227 -116.227 z m 205.779,-79.07245 V 786.3349 h -89.552 -89.5519 v 80.02513 80.02513 h 89.5519 89.552 z m -150.6727,31.86944 c -22.8225,-15.38007 -21.6784,-46.43685 2.1588,-58.59764 20.3814,-10.39784 45.1113,2.63067 48.5526,25.57912 1.9729,13.15664 -6.0631,28.17557 -18.5528,34.67391 -8.2347,4.28453 -24.594,3.44244 -32.1586,-1.65539 z m 25.6146,-18.67021 c 9.6131,-7.56167 4.2055,-23.36114 -7.9957,-23.36114 -13.1115,0 -18.7957,15.37157 -8.6386,23.36114 2.7612,2.17196 6.5039,3.94901 8.3171,3.94901 1.8133,0 5.556,-1.77705 8.3172,-3.94901 z m 62.0319,18.67021 c -22.8224,-15.38007 -21.6783,-46.43685 2.1588,-58.59764 20.3815,-10.39784 45.1113,2.63067 48.5527,25.57912 1.9729,13.15664 -6.0632,28.17557 -18.5528,34.67391 -8.2347,4.28453 -24.594,3.44244 -32.1587,-1.65539 z m 25.6147,-18.67021 c 9.7723,-7.68693 4.1919,-23.36114 -8.3172,-23.36114 -12.5091,0 -18.0895,15.67421 -8.3172,23.36114 2.7612,2.17196 6.504,3.94901 8.3172,3.94901 1.8133,0 5.556,-1.77705 8.3172,-3.94901 z m -168.3675,-13.19923 v -24.76968 h -6.6687 -6.6688 v 24.76968 24.76968 h 6.6688 6.6687 z m 245.7915,0 v -24.76968 h -6.6687 -6.6688 v 24.76968 24.76968 h 6.6688 6.6687 z M 1609.6817,698.30726 c 3.1645,-3.16456 2.8582,-8.30176 -0.7078,-11.86767 -2.2138,-2.21385 -6.8955,-2.99414 -17.9648,-2.99414 -15.6862,0 -20.9589,2.33507 -20.9589,9.28182 0,6.31095 4.1443,7.86642 20.9589,7.86642 10.2043,0 17.2487,-0.86258 18.6726,-2.28643 z"
         id="path1453"
         inkscape:connector-curvature="0" />
      <path
         style="fill:#a9a9a9;stroke-width:10.80204296;stroke-miterlimit:4;stroke-dasharray:none"
         d="m 1474.7821,945.66149 v -27.39872 l -11.4577,-0.82878 c -13.1711,-0.95271 -20.1766,-5.12185 -25.2175,-15.00755 -2.7413,-5.3761 -3.3319,-11.69677 -3.3344,-35.68469 0,-32.05155 1.0395,-36.12289 11.507,-44.93072 4.9372,-4.15441 7.8213,-4.99037 17.2167,-4.99037 h 11.2859 v -27.62772 -27.62772 h 53.3501 53.3501 v -20.95897 -20.95896 h -5.4343 c -11.8344,0 -25.0417,-14.58301 -25.0485,-27.65745 0,-8.61322 6.1469,-18.49896 14.4856,-23.27959 10.3699,-5.94514 39.0963,-6.22019 50.344,-0.48204 14.0277,7.15641 19.0946,26.0766 10.4972,39.1978 -4.1465,6.3284 -14.0345,12.2053 -20.5506,12.21416 l -5.2398,0.007 v 20.95896 20.95897 h 53.3501 53.3501 v 27.62772 27.62772 h 11.286 c 9.4848,0 12.2628,0.822 17.4073,5.15078 9.831,8.27224 11.3196,14.29135 11.3163,45.75641 0,23.04907 -0.6081,29.35204 -3.3344,34.69859 -5.0408,9.8857 -12.0463,14.05484 -25.2174,15.00755 l -11.4578,0.82878 v 27.39872 27.39872 h -116.227 -116.227 z m 205.779,-79.30146 V 786.3349 h -89.552 -89.5519 v 80.02513 80.02513 h 89.5519 89.552 z m -147.7599,33.62648 c -12.3792,-5.61511 -21.5724,-23.20631 -18.9013,-36.16762 3.444,-16.71207 20.0721,-29.28533 36.3093,-27.45515 17.4891,1.97126 30.0638,16.11988 30.0463,33.80701 -0.017,17.75874 -12.6621,30.7975 -30.8742,31.83682 -6.3964,0.36501 -13.129,-0.45567 -16.5801,-2.02106 z m 23.9114,-20.28896 c 5.6736,-5.67351 5.081,-15.87247 -1.2096,-20.82067 -2.7612,-2.17196 -6.5039,-3.94901 -8.3172,-3.94901 -1.8132,0 -5.5559,1.77705 -8.3171,3.94901 -10.0671,7.91879 -4.4239,24.63139 8.3171,24.63139 3.1756,0 7.4098,-1.69365 9.5268,-3.81072 z m 63.3012,19.80679 c -12.7566,-6.50642 -21.1415,-22.70905 -18.4673,-35.68545 3.444,-16.71207 20.072,-29.28533 36.3092,-27.45515 17.4891,1.97126 30.0638,16.11988 30.0464,33.80701 -0.017,17.73793 -12.6455,30.77328 -30.8743,31.87041 -7.385,0.44446 -12.7319,-0.35276 -17.014,-2.53682 z m 24.3454,-19.80679 c 5.6735,-5.67351 5.081,-15.87247 -1.2096,-20.82067 -2.7612,-2.17196 -6.5039,-3.94901 -8.3172,-3.94901 -1.8132,0 -5.556,1.77705 -8.3172,3.94901 -10.0671,7.91879 -4.4238,24.63139 8.3172,24.63139 3.1756,0 7.4097,-1.69365 9.5268,-3.81072 z m -169.5771,-13.33752 v -24.76968 h -6.6687 -6.6688 v 24.76968 24.76968 h 6.6688 6.6687 z m 245.7915,0 v -24.76968 h -6.6687 -6.6688 v 24.76968 24.76968 h 6.6688 6.6687 z M 1607.7334,699.53297 c 4.607,-3.22685 5.5862,-10.16318 1.9483,-13.80109 -3.088,-3.088 -34.2571,-3.088 -37.3451,0 -3.6379,3.63791 -2.6587,10.57424 1.9482,13.80109 2.7872,1.95219 8.504,2.96608 16.7243,2.96608 8.2203,0 13.9372,-1.01389 16.7243,-2.96608 z"
         id="path1451"
         inkscape:connector-curvature="0" />
      <path
         style="fill:#8d8d8d;stroke-width:10.80204296;stroke-miterlimit:4;stroke-dasharray:none"
         d="m 1476.0671,971.80471 c -0.7067,-0.70674 -1.285,-13.14585 -1.285,-27.64247 v -26.35748 l -9.0504,-0.004 c -10.6889,-0.004 -20.5809,-4.57342 -26.0633,-12.04076 -3.4968,-4.76296 -4.0212,-8.65896 -4.6052,-34.21693 -0.7413,-32.4403 0.6839,-39.86397 9.2237,-48.04562 4.9076,-4.70176 7.6771,-5.66881 18.1435,-6.33526 l 12.3517,-0.78565 v -27.40576 -27.40575 h 53.3501 53.3501 V 740.60606 719.6471 l -5.2397,-0.007 c -6.4659,-0.009 -16.3951,-5.87192 -20.4662,-12.08522 -8.8466,-13.50169 -3.3657,-32.19681 11.5572,-39.42086 7.2539,-3.51157 11.0919,-4.01249 26.4253,-3.44891 19.3202,0.71012 24.1685,2.77354 32.3817,13.78152 11.1782,14.98204 -2.0205,41.18052 -20.7467,41.18052 h -4.858 v 20.95896 20.95897 h 53.3501 53.3501 v 27.40575 27.40576 l 12.3518,0.78651 c 10.4663,0.66644 13.2358,1.63349 18.1434,6.33526 8.5238,8.16631 9.9656,15.62302 9.2237,47.70448 -0.6121,26.47159 -0.9844,28.95711 -5.2293,34.90885 -5.5145,7.7318 -14.2552,11.69293 -25.802,11.69293 h -8.583 l -0.5286,27.15138 -0.5287,27.15139 -114.4656,0.49108 c -62.9561,0.27009 -115.0439,-0.0873 -115.7507,-0.7939 z m 204.494,-104.492 V 786.3349 h -89.552 -89.5519 v 80.97781 80.97781 h 89.5519 89.552 z m -149.0992,31.30633 c -10.3262,-5.45133 -16.8646,-16.23815 -16.9555,-27.97273 -0.1679,-21.67269 17.8112,-37.29706 38.8314,-33.74572 8.8081,1.48812 20.7496,11.27956 24.3463,19.96284 3.4382,8.30059 1.5692,24.78792 -3.6391,32.10231 -9.1187,12.80606 -28.3518,17.16608 -42.5831,9.6533 z m 25.2507,-18.92149 c 6.1925,-6.19244 5.7351,-14.29079 -1.1568,-20.48262 -6.0842,-5.46623 -10.6514,-5.4197 -17.1554,0.17472 -10.2528,8.81919 -4.546,24.11862 8.9965,24.11862 3.0278,0 7.2198,-1.71482 9.3157,-3.81072 z m 62.3959,18.92149 c -21.7217,-11.46709 -22.8109,-42.75956 -1.9851,-57.02966 5.3154,-3.6422 9.298,-4.69893 17.709,-4.69893 13.0277,0 22.3382,5.43285 28.6957,16.7445 5.4455,9.68902 4.5979,26.2945 -1.8009,35.28081 -9.1536,12.85501 -28.3636,17.22867 -42.6187,9.70328 z m 25.2507,-18.92149 c 6.1925,-6.19244 5.7351,-14.29079 -1.1568,-20.48262 -6.0799,-5.46232 -10.6511,-5.41997 -17.1368,0.15872 -10.1067,8.69347 -4.3627,24.13462 8.9779,24.13462 3.0277,0 7.2198,-1.71482 9.3157,-3.81072 z m -169.5771,-12.38484 v -25.72236 h -6.6687 -6.6688 v 25.72236 25.72236 h 6.6688 6.6687 z m 245.7915,0 v -25.72236 h -6.6687 -6.6688 v 25.72236 25.72236 h 6.6688 6.6687 z m -111.5997,-167.8078 c 3.5536,-3.55359 3.914,-10.56679 0.7078,-13.77303 -3.088,-3.088 -34.2571,-3.088 -37.3451,0 -3.2062,3.20624 -2.8459,10.21944 0.7077,13.77303 2.2138,2.21385 6.8956,2.99414 17.9648,2.99414 11.0693,0 15.751,-0.78029 17.9648,-2.99414 z"
         id="path1449"
         inkscape:connector-curvature="0" />
      <path
         style="fill:#747474;stroke-width:10.80204296;stroke-miterlimit:4;stroke-dasharray:none"
         d="m 1476.0524,971.78996 c -0.6986,-0.69862 -1.2703,-13.01201 -1.2703,-27.36309 v -26.09284 l -11.3501,-1.0292 c -24.1689,-2.19156 -29.3364,-12.05826 -28.365,-54.15945 0.5403,-23.41893 1.2585,-29.32248 4.0932,-33.64401 5.4354,-8.28649 14.2873,-12.66551 25.6188,-12.67358 l 10.0031,-0.007 v -27.62772 -27.62772 h 53.3501 53.3501 v -20.71544 -20.71545 l -7.3348,-1.17289 c -9.7325,-1.55629 -16.2886,-7.01033 -20.2112,-16.81377 -4.1184,-10.29282 -2.599,-18.69293 4.9324,-27.2708 6.8047,-7.75012 15.1226,-10.4598 32.153,-10.4744 15.7397,-0.0135 24.0178,2.37883 30.8365,8.91156 15.7604,15.09946 7.4503,42.21939 -13.9874,45.64741 l -7.3349,1.17289 v 20.71545 20.71544 h 52.3451 52.3451 l 0.5287,27.15138 0.5286,27.15138 11.5233,0.95268 c 12.5009,1.03351 19.8748,4.78913 25.1284,12.79821 2.741,4.17867 3.4817,10.36242 4.0162,33.52651 0.9836,42.6337 -4.189,52.17645 -29.3776,54.19836 l -12.243,0.98274 v 27.36686 27.36687 h -114.004 c -62.7022,0 -114.5757,-0.57161 -115.2743,-1.27025 z M 1680.5611,867.31271 V 786.3349 h -89.552 -89.5519 v 80.97781 80.97781 h 89.5519 89.552 z m -147.854,31.61864 c -10.1821,-4.6242 -16.3833,-13.51724 -17.4953,-25.08998 -1.1999,-12.48796 0.4349,-17.7366 8.2027,-26.33461 8.5325,-9.44443 20.5107,-13.21259 31.5175,-9.91489 9.2058,2.75815 19.531,11.49516 22.74,19.24222 3.493,8.43305 1.5908,24.80392 -3.7544,32.31054 -5.2047,7.3094 -17.2823,13.33356 -26.7318,13.33356 -3.6678,0 -10.1832,-1.59608 -14.4787,-3.54684 z m 23.3639,-18.23666 c 10.7118,-7.50284 4.4261,-25.64562 -8.8852,-25.64562 -13.3112,0 -19.5969,18.14278 -8.8851,25.64562 5.1328,3.59514 12.6375,3.59514 17.7703,0 z m 64.2827,18.23666 c -10.6366,-4.83061 -16.4931,-13.57707 -17.5395,-26.19469 -1.0248,-12.35788 1.7775,-19.76697 10.3098,-27.25841 9.0918,-7.98277 19.6416,-10.8264 29.3614,-7.91427 9.2894,2.78316 19.6129,11.4957 22.8331,19.27011 3.4931,8.43305 1.5909,24.80392 -3.7543,32.31054 -5.2047,7.3094 -17.2823,13.33356 -26.7318,13.33356 -3.6678,0 -10.1832,-1.59608 -14.4787,-3.54684 z m 23.3638,-18.23666 c 10.7118,-7.50284 4.4261,-25.64562 -8.8851,-25.64562 -13.3112,0 -19.5969,18.14278 -8.8851,25.64562 5.1328,3.59514 12.6374,3.59514 17.7702,0 z m -168.9354,-13.38198 v -25.72236 h -7.6214 -7.6214 v 24.45211 c 0,13.44869 0.5716,25.02375 1.2702,25.72237 0.6986,0.69864 4.1283,1.27024 7.6214,1.27024 h 6.3512 z m 247.2759,-0.47634 0.5316,-25.24602 h -7.6767 -7.6768 v 25.83739 25.83737 l 7.1451,-0.59135 7.1451,-0.59137 z M 1608.2826,700.52665 c 4.177,-2.23544 5.022,-11.17179 1.3991,-14.79477 -3.088,-3.088 -34.2571,-3.088 -37.3451,0 -3.4271,3.42713 -2.7823,12.47829 1.0479,14.70919 4.3775,2.54962 30.1758,2.61289 34.8981,0.0856 z"
         id="path1447"
         inkscape:connector-curvature="0" />
      <path
         style="fill:#545454;stroke-width:10.80204296;stroke-miterlimit:4;stroke-dasharray:none"
         d="m 1476.6875,945.69712 v -27.36309 l -11.1232,-1.00862 c -13.8875,-1.25927 -22.1338,-5.42264 -26.4754,-13.36677 -2.8347,-5.18689 -3.3666,-11.14074 -3.3666,-37.68391 0,-27.17595 0.4741,-32.24721 3.4379,-36.76915 5.6068,-8.55468 14.2317,-12.66977 26.5715,-12.67779 l 10.9558,-0.007 v -27.62772 -27.62772 h 52.3974 52.3974 v -20.71544 -20.71545 l -7.4074,-1.18449 c -20.8161,-3.32862 -29.0876,-29.80941 -14.1737,-45.37616 6.3515,-6.62959 14.9464,-9.16058 31.1079,-9.16058 16.2344,0 24.7592,2.53391 31.2231,9.28077 14.6688,15.31094 6.2512,41.97149 -14.2889,45.25597 l -7.4074,1.18449 v 20.71545 20.71544 h 52.3974 52.3974 v 27.62772 27.62772 h 10.5741 c 11.8826,0 19.5927,3.23988 25.4595,10.69837 3.6891,4.6899 3.979,7.47586 3.979,38.2399 0,36.97056 -1.2522,42.01816 -11.7734,47.45886 -3.296,1.70446 -10.9982,3.55287 -17.116,4.10762 l -11.1232,1.00862 v 27.36309 27.36309 h -114.3216 -114.3216 z m 205.3233,-78.86075 0.497,-80.50147 h -91.478 -91.478 v 79.70756 c 0,43.83918 0.5799,80.28748 1.2887,80.99626 0.7088,0.70877 41.6502,1.06603 90.981,0.79391 l 89.6922,-0.49479 z m -150.2445,31.29551 c -10.7307,-5.66091 -16.8975,-16.04739 -16.9402,-28.53209 -0.037,-10.75189 3.3164,-18.05647 11.419,-24.87432 12.4873,-10.50742 29.4711,-10.44265 42.0721,0.16043 17.4527,14.68545 13.9472,43.80179 -6.4631,53.68226 -10.7057,5.18255 -19.6836,5.05237 -30.0878,-0.43627 z m 25.3783,-17.95799 c 4.8215,-5.49071 5.6937,-11.30562 2.5947,-17.29846 -4.4632,-8.6309 -14.479,-10.74423 -21.8634,-4.61318 -10.5753,8.78019 -4.6056,25.24602 9.1529,25.24602 4.4599,0 8.2991,-1.26546 10.1158,-3.33438 z m 62.2683,17.95799 c -10.7308,-5.66091 -16.8975,-16.04739 -16.9403,-28.53209 -0.037,-10.75189 3.3165,-18.05647 11.419,-24.87432 12.4874,-10.50742 29.4712,-10.44265 42.0722,0.16043 17.4527,14.68545 13.9472,43.80179 -6.4631,53.68226 -10.7057,5.18255 -19.6836,5.05237 -30.0878,-0.43627 z m 26.7134,-19.64396 c 4.711,-5.98905 4.8836,-8.60448 1.0563,-16.00562 -5.1455,-9.95025 -19.5549,-9.95025 -24.7004,0 -3.8273,7.40114 -3.6546,10.01657 1.0563,16.00562 3.0461,3.87237 5.6286,5.02035 11.2939,5.02035 5.6654,0 8.2479,-1.14798 11.2939,-5.02035 z m -171.3442,-11.17521 v -25.72236 h -7.6214 -7.6214 v 24.45211 c 0,13.44869 0.5716,25.02375 1.2702,25.72237 0.6986,0.69864 4.1283,1.27024 7.6214,1.27024 h 6.3512 z m 247.2759,-0.47634 0.5316,-25.24602 h -7.6767 -7.6768 v 25.83739 25.83737 l 7.1451,-0.59135 7.1451,-0.59137 z M 1608.2826,700.52665 c 4.177,-2.23544 5.022,-11.17179 1.3991,-14.79477 -3.088,-3.088 -34.2571,-3.088 -37.3451,0 -3.4271,3.42713 -2.7823,12.47829 1.0479,14.70919 4.3775,2.54962 30.1758,2.61289 34.8981,0.0856 z"
         id="path1445"
         inkscape:connector-curvature="0" />
      <path
         style="fill:#353535;stroke-width:10.80204296;stroke-miterlimit:4;stroke-dasharray:none"
         d="m 1476.2635,944.00346 -0.5287,-27.15138 -12.3848,-0.98768 c -24.2093,-1.93071 -26.6773,-6.45129 -26.6679,-48.84567 0.01,-28.83229 0.3982,-32.73868 3.8524,-38.40423 4.7093,-7.72421 13.876,-11.79384 26.565,-11.79384 h 9.588 v -27.62772 -27.62772 h 53.3501 53.3501 v -20.95897 -20.95896 h -4.8393 c -7.3039,0 -18.562,-6.54628 -22.3121,-12.97383 -3.8754,-6.64228 -4.3261,-20.20432 -0.8968,-26.98154 1.3097,-2.58842 5.2822,-6.66113 8.8278,-9.05047 5.6841,-3.8305 8.7902,-4.34424 26.2655,-4.34424 22.488,0 28.9948,2.2343 34.9499,12.001 4.6605,7.64347 4.845,20.75531 0.3992,28.37525 -3.75,6.42755 -15.0082,12.97383 -22.312,12.97383 h -4.8393 v 20.95896 20.95897 h 53.3501 53.35 v 27.62772 27.62772 h 9.588 c 12.6891,0 21.8557,4.06963 26.5651,11.79384 3.4541,5.66555 3.846,9.57194 3.8524,38.40423 0.01,42.39438 -2.4587,46.91496 -26.6679,48.84567 l -12.3849,0.98768 -0.5286,27.15138 -0.5287,27.15139 h -114.217 -114.217 z m 206.2029,-76.69075 V 786.3349 h -91.4573 -91.4573 v 80.97781 80.97781 h 91.4573 91.4573 z m -145.76,33.22236 c -13.6488,-4.01894 -22.7547,-18.26696 -21.4821,-33.61303 1.4925,-17.99787 13.7151,-29.14241 31.9615,-29.14241 28.8982,0 42.9514,31.91968 23.5218,53.42601 -9.1665,10.14622 -20.5861,13.27958 -34.0012,9.32943 z m 21.4353,-22.05043 c 2.3578,-2.59362 4.287,-6.85036 4.287,-9.45943 0,-6.68959 -8.0097,-14.09734 -15.2429,-14.09734 -7.093,0 -15.2428,7.36746 -15.2428,13.77964 0,5.58682 4.8897,12.67638 10.207,14.79905 5.6035,2.23695 10.9065,0.57164 15.9917,-5.02192 z m 65.9601,22.00392 c -7.9889,-2.31566 -19.2232,-15.06508 -20.8322,-23.64185 -4.1014,-21.86259 9.7983,-39.06708 31.5628,-39.06708 28.8982,0 42.9514,31.91968 23.5218,53.42601 -9.2202,10.20559 -20.5117,13.26575 -34.2524,9.28292 z m 21.6864,-22.00392 c 2.3579,-2.59362 4.2871,-6.85036 4.2871,-9.45943 0,-6.68959 -8.0097,-14.09734 -15.2429,-14.09734 -7.0931,0 -15.2429,7.36746 -15.2429,13.77964 0,5.58682 4.8898,12.67638 10.207,14.79905 5.6036,2.23695 10.9066,0.57164 15.9917,-5.02192 z m -171.0061,-11.17193 v -25.72236 h -7.6214 -7.6214 v 25.72236 25.72236 h 7.6214 7.6214 z m 247.6969,0 v -25.72236 h -7.6215 -7.6214 v 25.72236 25.72236 h 7.6214 7.6215 z M 1611.1069,697.86342 c 3.4543,-5.27195 1.5566,-10.98663 -4.7733,-14.37431 -4.7144,-2.52309 -25.9345,-2.52309 -30.649,0 -6.3299,3.38768 -8.2276,9.10236 -4.7733,14.37431 2.8433,4.3393 4.128,4.63563 20.0978,4.63563 15.9699,0 17.2546,-0.29633 20.0978,-4.63563 z"
         id="path1443"
         inkscape:connector-curvature="0" />
      <path
         style="fill:#000000;stroke-width:10.80204296;stroke-miterlimit:4;stroke-dasharray:none"
         d="M 1476.6875,943.52712 V 915.8994 h -12.4128 c -11.4741,0 -12.9511,-0.49294 -19.53,-6.51782 l -7.1171,-6.5178 -0.6048,-32.78986 c -0.414,-22.44282 0.1163,-34.53101 1.6806,-38.30759 3.6179,-8.73446 11.8561,-13.37009 25.7412,-14.48465 l 12.2429,-0.98274 v -27.36686 -27.36686 h 53.3501 53.3501 v -20.71544 -20.71545 l -7.6851,-1.22889 c -4.8442,-0.77462 -10.2175,-3.54963 -14.5355,-7.50681 -12.5143,-11.46846 -10.6037,-32.62452 3.7358,-41.36784 8.9009,-5.42718 43.3116,-5.42718 52.2124,0 8.786,5.35712 12.625,13.87227 11.5057,25.52051 -0.7646,7.95713 -2.0737,10.62716 -7.7699,15.84733 -4.318,3.95718 -9.6912,6.73219 -14.5354,7.50681 l -7.6851,1.22889 v 20.71545 20.71544 h 53.3501 53.35 v 27.36686 27.36686 l 12.0797,0.96963 c 13.7673,1.10511 20.2293,4.57664 24.9448,13.40079 2.833,5.30153 3.2032,10.74798 2.6629,39.17599 l -0.6275,33.01843 -7.1171,6.5178 c -6.5789,6.02488 -8.0559,6.51782 -19.5299,6.51782 h -12.4129 v 27.62772 27.62773 h -114.3216 -114.3216 z m 205.7789,-76.21441 V 786.3349 h -91.4573 -91.4573 v 80.97781 80.97781 h 91.4573 91.4573 z m -145.4644,32.53208 c -19.1837,-7.00279 -27.0055,-25.59321 -18.5767,-44.15274 9.805,-21.59017 41.5135,-24.27215 54.9129,-4.64471 8.2694,12.11308 7.9674,27.84975 -0.7328,38.18936 -9.1964,10.92932 -23.2514,15.11703 -35.6034,10.60809 z m 19.8572,-20.00068 c 6.5744,-6.57439 7.0928,-12.93899 1.6205,-19.89588 -8.3981,-10.67648 -26.6438,-3.78294 -26.4761,10.00314 0.068,5.59541 2.8673,9.92289 8.5135,13.16093 6.1388,3.52061 10.4069,2.66705 16.3421,-3.26819 z m 67.7894,20.00068 c -19.1838,-7.00279 -27.0055,-25.59321 -18.5768,-44.15274 9.8051,-21.59017 41.5135,-24.27215 54.9129,-4.64471 8.2694,12.11308 7.9675,27.84975 -0.7327,38.18936 -9.1964,10.92932 -23.2514,15.11703 -35.6034,10.60809 z m 16.5528,-16.54662 c 8.9005,-4.05531 11.2689,-15.2848 4.9249,-23.34994 -8.3981,-10.67648 -26.6438,-3.78294 -26.4762,10.00314 0.068,5.59541 2.8674,9.92289 8.5135,13.16093 4.8427,2.77724 7.2743,2.81189 13.0378,0.18577 z m -164.9349,-16.4618 0.5316,-25.24602 h -8.6294 -8.6294 v 25.83192 25.83192 l 8.0977,-0.5859 8.0978,-0.5859 z m 246.2125,0.47634 v -25.72236 h -8.5741 -8.5742 v 24.45211 c 0,13.44869 0.5716,25.02375 1.2703,25.72237 0.6986,0.69864 4.557,1.27024 8.5741,1.27024 h 7.3039 z M 1610.9074,698.26438 c 3.92,-5.59664 3.7414,-8.32752 -0.8447,-12.91357 -3.1756,-3.1756 -6.3512,-3.81072 -19.0536,-3.81072 -12.7024,0 -15.878,0.63512 -19.0536,3.81072 -4.586,4.58605 -4.7647,7.31693 -0.8446,12.91357 2.6867,3.83579 4.561,4.23467 19.8982,4.23467 15.3373,0 17.2116,-0.39888 19.8983,-4.23467 z"
         id="path1441"
         inkscape:connector-curvature="0" />
    </g>
  </g>
</svg>
